<?xml version="1.0" encoding="UTF-8"?>
<svg width="64px" height="18px" viewBox="0 0 64 18" version="1.1" xmlns="http://www.w3.org/2000/svg" xmlns:xlink="http://www.w3.org/1999/xlink">
    <title>Group</title>
    <g id="Page-1" stroke="none" stroke-width="1" fill="none" fill-rule="evenodd">
        <g id="Group" fill="#494C4E" fill-rule="nonzero">
            <g id="important" transform="translate(46.000000, 0.000000)">
                <path d="M9,14.0000037 C8.17246844,13.9962485 7.50430865,13.3230235 7.50679985,12.4954872 C7.50930502,11.6679509 8.18151727,10.9987723 9.0090564,11.0000154 C9.83659553,11.001262 10.5067999,11.6724599 10.5067999,12.5 C10.5048692,13.3302828 9.83028302,14.0018246 9,14.0000037 L9,14.0000037 Z" id="Path"></path>
                <path d="M9,2 C12.8659932,2 16,5.13400675 16,9 C16,12.8659932 12.8659932,16 9,16 C5.13400675,16 2,12.8659932 2,9 C2.00435365,5.13581153 5.13581153,2.00435365 9,2 M9,0 C4.02943725,0 0,4.02943725 0,9 C0,13.9705627 4.02943725,18 9,18 C13.9705627,18 18,13.9705627 18,9 C18,4.02943725 13.9705627,0 9,0 Z" id="Shape"></path>
                <path d="M10,4 L8,4 C7.69209772,4 7.40138358,4.14193186 7.21191067,4.38463298 C7.02243777,4.6273341 6.95533369,4.94378817 7.03,5.2425 L8.03,9.2425 C8.14149979,9.6873894 8.54135113,9.99939508 9,9.99939508 C9.45864887,9.99939508 9.85850021,9.6873894 9.97,9.2425 L10.97,5.2425 C11.0446663,4.94378817 10.9775622,4.6273341 10.7880893,4.38463298 C10.5986164,4.14193186 10.3079023,4 10,4 L10,4 Z" id="Path"></path>
            </g>
            <g id="important" transform="translate(23.000000, 0.000000)">
                <path d="M9,14.0000037 C8.17246844,13.9962485 7.50430865,13.3230235 7.50679985,12.4954872 C7.50930502,11.6679509 8.18151727,10.9987723 9.0090564,11.0000154 C9.83659553,11.001262 10.5067999,11.6724599 10.5067999,12.5 C10.5048692,13.3302828 9.83028302,14.0018246 9,14.0000037 L9,14.0000037 Z" id="Path"></path>
                <path d="M9,2 C12.8659932,2 16,5.13400675 16,9 C16,12.8659932 12.8659932,16 9,16 C5.13400675,16 2,12.8659932 2,9 C2.00435365,5.13581153 5.13581153,2.00435365 9,2 M9,0 C4.02943725,0 0,4.02943725 0,9 C0,13.9705627 4.02943725,18 9,18 C13.9705627,18 18,13.9705627 18,9 C18,4.02943725 13.9705627,0 9,0 Z" id="Shape"></path>
                <path d="M10,4 L8,4 C7.69209772,4 7.40138358,4.14193186 7.21191067,4.38463298 C7.02243777,4.6273341 6.95533369,4.94378817 7.03,5.2425 L8.03,9.2425 C8.14149979,9.6873894 8.54135113,9.99939508 9,9.99939508 C9.45864887,9.99939508 9.85850021,9.6873894 9.97,9.2425 L10.97,5.2425 C11.0446663,4.94378817 10.9775622,4.6273341 10.7880893,4.38463298 C10.5986164,4.14193186 10.3079023,4 10,4 L10,4 Z" id="Path"></path>
            </g>
            <g id="important">
                <path d="M9,14.0000037 C8.17246844,13.9962485 7.50430865,13.3230235 7.50679985,12.4954872 C7.50930502,11.6679509 8.18151727,10.9987723 9.0090564,11.0000154 C9.83659553,11.001262 10.5067999,11.6724599 10.5067999,12.5 C10.5048692,13.3302828 9.83028302,14.0018246 9,14.0000037 L9,14.0000037 Z" id="Path"></path>
                <path d="M9,2 C12.8659932,2 16,5.13400675 16,9 C16,12.8659932 12.8659932,16 9,16 C5.13400675,16 2,12.8659932 2,9 C2.00435365,5.13581153 5.13581153,2.00435365 9,2 M9,0 C4.02943725,0 0,4.02943725 0,9 C0,13.9705627 4.02943725,18 9,18 C13.9705627,18 18,13.9705627 18,9 C18,4.02943725 13.9705627,0 9,0 Z" id="Shape"></path>
                <path d="M10,4 L8,4 C7.69209772,4 7.40138358,4.14193186 7.21191067,4.38463298 C7.02243777,4.6273341 6.95533369,4.94378817 7.03,5.2425 L8.03,9.2425 C8.14149979,9.6873894 8.54135113,9.99939508 9,9.99939508 C9.45864887,9.99939508 9.85850021,9.6873894 9.97,9.2425 L10.97,5.2425 C11.0446663,4.94378817 10.9775622,4.6273341 10.7880893,4.38463298 C10.5986164,4.14193186 10.3079023,4 10,4 L10,4 Z" id="Path"></path>
            </g>
        </g>
    </g>
</svg>